<?xml version="1.0" encoding="UTF-8"?>
<!DOCTYPE svg PUBLIC "-//W3C//DTD SVG 1.1//EN" "http://www.w3.org/Graphics/SVG/1.1/DTD/svg11.dtd">
<!-- Creator: CorelDRAW -->
<svg xmlns="http://www.w3.org/2000/svg" xml:space="preserve" width="74.5425mm" height="45.5714mm" version="1.1" style="shape-rendering:geometricPrecision; text-rendering:geometricPrecision; image-rendering:optimizeQuality; fill-rule:evenodd; clip-rule:evenodd"
viewBox="0 0 379.46 231.98"
 xmlns:xlink="http://www.w3.org/1999/xlink"
 xmlns:xodm="http://www.corel.com/coreldraw/odm/2003">
 <defs>
  <style type="text/css">
   <![CDATA[
    .fil1 {fill:#020202}
    .fil0 {fill:#030303}
    .fil5 {fill:#060606}
    .fil16 {fill:#292925}
    .fil14 {fill:#292929}
    .fil2 {fill:#2B2728}
    .fil10 {fill:#2D2926}
    .fil13 {fill:#2D292A}
    .fil12 {fill:#2E2528}
    .fil15 {fill:#2E292A}
    .fil17 {fill:#302826}
    .fil11 {fill:#31262A}
    .fil19 {fill:#6B6A6A}
    .fil18 {fill:#757575}
    .fil23 {fill:#7E7E7E}
    .fil4 {fill:#82D64A}
    .fil6 {fill:#848383}
    .fil7 {fill:#87D554}
    .fil24 {fill:#8A8586}
    .fil8 {fill:#8AD054}
    .fil9 {fill:#91CC6B}
    .fil20 {fill:#A6A6A6}
    .fil22 {fill:#CBEEB1}
    .fil21 {fill:#DBF8CA}
    .fil3 {fill:whitesmoke}
   ]]>
  </style>
 </defs>
 <g id="Layer_x0020_1">
  <metadata id="CorelCorpID_0Corel-Layer"/>
  <g id="_2659979413856">
   <path class="fil0" d="M213.9 80.32c2.37,-0.9 3.94,2.09 4.97,3.3 5.79,6.82 12.28,7.75 0.29,11.64 -4.18,1.36 -11.22,4.34 -10.18,-3.1 0.34,-2.42 1.25,-4.38 1.89,-6.53 0.69,-2.31 0.87,-4.49 3.03,-5.31zm-49.37 0.13c3.82,-2.2 5.42,7.24 6.2,10.13 0.7,2.59 0.89,5.14 -1.42,6.18 -2,0.9 -4.77,-0.44 -6.64,-1 -3.96,-1.19 -11.45,-2.12 -6.83,-6.99 1.87,-1.97 3.12,-2.93 4.4,-4.19 1.46,-1.44 2.29,-2.99 4.28,-4.13zm87.65 -76.59c20.01,-1.63 43.84,21.63 48.46,39.44 3.88,14.98 -4.42,28.86 -15.48,37.91 -17.79,14.55 -48.02,15.46 -62.81,-3.4 -1.49,-1.9 -3.12,-4.1 -4.37,-6.57 -8.23,-16.33 -3.35,-38.68 6.65,-50.81 6.34,-7.69 16.65,-15.67 27.56,-16.56zm-129.25 0.04c6.92,-0.68 12.57,1.43 17.67,4.17 6.2,3.33 10.78,7.53 14.97,12.67 6.09,7.49 9.69,18.11 10.36,27.89 1.04,15.31 -3.75,24.82 -11.37,32.6 -1.68,1.72 -4.07,3.46 -6.16,4.78 -13.28,8.4 -29.93,7.36 -43.98,1.25 -5.14,-2.23 -9.57,-5.87 -12.93,-8.96 -7.84,-7.23 -14.49,-18.74 -12.99,-30.94 0.76,-6.2 3.47,-11.7 6.16,-15.95 2.27,-3.58 6.68,-9.08 9.83,-12.07 7.33,-6.97 17.31,-14.35 28.44,-15.44zm-31.24 13.04l-0.65 0.64c-5.12,5.72 -5.45,5.36 -10.06,12.77 -2.73,4.39 -5.38,10.41 -6.32,16.58 -1.64,10.8 3.57,21.91 10.16,29.7 0.74,0.88 1.99,2.25 2.73,2.88l0.65 0.66c2.56,3.66 11.95,9.56 16.59,11.68 17.02,7.8 29.63,6.48 47.61,9.27 6.6,1.02 10.54,2.38 16.48,4.62 2.23,0.84 2.37,1.83 3.51,3.64 0.56,0.3 0.4,0.18 0.65,0.66 2.21,0.98 2.53,0.46 4.14,2.23l3.07 3.35c-0.44,1.23 -2.06,2.86 -3.05,3.51l-0.65 0.63c-1.3,1.31 -2.71,2.71 -4.13,4.1 -1.5,1.46 -3.23,2.07 -4.97,3.37 -2.06,1.54 -0.77,4.84 0.36,6.14 0.58,0.67 1.39,1.31 2.09,2.08 1.87,2.05 5.02,5.36 8.17,3.69 0.97,-0.51 1.12,-1.41 1.69,-2.48 1.78,-3.34 4.16,-4.51 6.03,-6.74 0.94,-1.13 2.93,-3.63 4.47,-4.18 1,0.82 1.73,1.79 2.88,2.9 1.07,1.03 1.85,2.02 2.87,3.01l0.64 0.66c0.86,1.32 2.58,2.34 3.5,3.92 1.06,1.83 1.35,3.77 4.32,3.23 3.27,-0.59 13.19,-9.12 7.63,-12.56 -1.93,-1.19 -2.94,-1.62 -4.57,-3.26 -1.2,-1.21 -2.52,-2.75 -3.88,-3.94 -1.19,-1.03 -3.11,-2.57 -3.79,-4.08 2.74,-4.46 5.9,-4.56 7.72,-6.13 2.71,-2.34 -1.71,-2.09 8.34,-5.48 7.63,-2.58 14.97,-3.34 23.38,-4.19 19.34,-1.96 28.76,-3.17 43.31,-12.04 2.13,-1.3 6.25,-4.44 7.77,-6.05 0.76,-0.8 1.03,-1.07 1.67,-1.72 6.68,-6.82 11.99,-14.1 13.14,-24.88 1.62,-15.08 -6.92,-29.1 -16.76,-38.46 -7.65,-7.28 -21.74,-18.86 -38.5,-16.31 -14.52,2.21 -26.42,13.69 -32.16,23.1 -3.44,5.63 -6.68,11.87 -8.28,19.36 -2.68,12.54 -2.08,11.88 -3.3,24.3 -0.79,8.01 -2.89,21.23 -6.32,28.13 -1.27,2.55 -2.39,1.36 -3.84,3.2 -1.16,1.47 -0.51,2.5 -2.52,4.51 -1.22,1.22 -2.42,2.59 -3.77,3.15 -0.86,-0.57 -3.77,-3.5 -4.28,-4.46 -0.51,-0.96 -0.78,-2.24 -1.36,-3.09 -1.89,-2.79 -3.17,2.25 -7.47,-14.66 -5.12,-20.16 -0.79,-37.27 -12.92,-58.27 -7.56,-13.1 -16,-17.27 -17.02,-18.54 -0.93,-0.28 -0.49,-0.15 -0.76,-0.52 -4.97,-2.74 -6.78,-4.54 -13.37,-5.87 -5.58,-1.13 -12.39,-0.96 -17.36,1.02 -4.77,1.9 -8.95,3.64 -13.01,6.28 -1.87,1.22 -3.78,2.74 -5.41,4.25 -1.01,0.94 -1.73,1.43 -2.65,2.3 -0.86,0.82 -1.51,1.77 -2.44,2.38z"/>
   <path class="fil1" d="M251.26 203.14l7.98 0.13 -0.23 -8.36 -0.45 -25.21 -8.6 0.11 0.02 17.48c-1.58,-1.01 -10.09,-11.5 -12.09,-13.97 -0.38,-0.47 -0.8,-0.96 -1.11,-1.5 -1.21,-2.12 -1.76,-2.18 -5.59,-2.16 -4.06,0.01 -4.06,-0.45 -4.09,1.21 -0.14,6.87 0.03,13.99 0.03,20.89 0,3.44 -0.12,7.05 -0.04,10.46 0.04,1.63 0.09,1.2 3.84,1.19 1.8,-0 3.64,0.03 5.43,-0.02l0.13 -17.22c0.94,0.4 13.6,16.14 14.78,16.97z"/>
   <path class="fil1" d="M142.72 169.8c-2.49,5.33 4.32,25.86 -6.44,26.11 -10.79,0.25 -5.32,-18.35 -6.79,-26.26l-9.31 0.02c-0.77,4.63 -0.41,21.49 1.15,25.83 2.2,6.12 10.76,9.71 18.92,8.04 13.94,-2.85 11.83,-17.78 11.65,-29.26 -0.08,-5.15 0.85,-4.55 -2.3,-4.55 -2.11,0 -4.85,-0.24 -6.87,0.06z"/>
   <path class="fil1" d="M188.51 169.94c-0.66,2.69 -0.29,21.62 0.54,24.03 1.25,3.64 2.13,5.12 5.29,7.24 6.19,4.18 21.67,4.58 24.87,-7.36 1.82,-6.79 0.91,-16.47 0.91,-23.91l-9.51 -0.45c0.28,5.3 0.11,10.98 0.07,16.27 -0.04,5.56 -0.5,10.11 -6.36,10.16 -10.27,0.1 -4.82,-15.77 -6.57,-26.21 -1.56,-0.11 -8.21,-0.24 -9.25,0.23z"/>
   <path class="fil1" d="M177.03 203.52l7.44 0.01 -0.03 -7.59 -15.98 -0.03 0 -26.36 -9.47 0.13c-0.45,2.56 -0.1,23.47 -0.1,29.38 0,0.7 -0,1.39 -0.01,2.09l0.06 1.55c0.01,0.09 0.04,0.16 0.05,0.24 0.02,0.08 0.05,0.17 0.07,0.23 0.01,0.06 0.04,0.15 0.07,0.23l17.9 0.13z"/>
   <path class="fil2" d="M81.32 52.79c-0.7,-11.11 7.61,-22.95 12.63,-28 6.73,-6.77 13.73,-13.62 24.14,-16.76 15.94,-4.81 33.17,9.25 38.72,20.31 7.85,15.62 9.1,34 -1.69,47.45 -10.78,13.44 -28.27,15.87 -45.39,10.09 -4.45,-1.5 -10.61,-4.77 -13.19,-7.41 -0.41,-0.42 -0.69,-0.86 -1.11,-1.27 -0.76,-0.75 -1.28,-0.38 -4.09,-3.71 -4.57,-5.43 -9.52,-12.61 -10.03,-20.68zm40.6 -47.31c-10.95,1.48 -21.93,10.47 -26.96,15.63 -5.33,5.47 -13.86,15.74 -15.19,27.28 -0.8,6.94 1.34,11.95 3.9,17.13 1.19,2.4 2.77,4.56 4.18,6.51 0.53,0.73 1.86,2.31 2.39,2.82l2.66 2.82c0.65,0.53 0.88,0.44 1.53,1.08 1.64,1.6 2.16,2.18 4.28,3.54 2.2,1.42 4.39,2.67 6.91,3.78 4.88,2.13 11.07,3.91 17.07,4.31 12.17,0.81 23.17,-2.32 31.3,-10.75 12.29,-12.75 13.59,-31.54 6,-48.71 -1.93,-4.38 -5.28,-9.73 -8.69,-12.69 -4.32,-3.75 -5.29,-5.8 -12.01,-9.11 -5.06,-2.49 -10.48,-4.56 -17.37,-3.63z"/>
   <path class="fil2" d="M252.36 7.1c11.13,-1.24 22.94,7.34 28.22,12.2 2.69,2.48 7.52,7.54 9.81,10.79 6.9,9.8 10.63,18.95 6.26,30.56 -2.02,5.37 -6.28,11.47 -10.39,15.16 -5.09,4.57 -8.28,7.2 -15.45,9.85 -28.1,10.4 -53.36,-5.45 -53.83,-32.08 -0.21,-11.69 4.16,-24.38 10.02,-31.02 6.51,-7.38 14.6,-14.25 25.36,-15.45zm47.77 47.26c1.95,-12.08 -7.33,-24.41 -12.29,-30.07 -5.39,-6.15 -14.45,-14.22 -24.82,-17.68 -10.31,-3.44 -20.19,0.28 -28.49,6.26l-8.15 7.76c-5.39,6.55 -8.21,12.81 -10.06,21.75 -2.86,13.84 -0.08,24.86 6.71,33.94 5.29,7.07 15.88,14.07 28.22,14.2 18.98,0.2 33.15,-7.36 42.7,-21.08 2.72,-3.91 5.3,-9.65 6.18,-15.07z"/>
   <path class="fil3" d="M121.91 5.48c6.89,-0.93 12.32,1.14 17.37,3.63 6.72,3.31 7.69,5.36 12.01,9.11 3.4,2.96 6.75,8.31 8.69,12.69 7.59,17.17 6.29,35.96 -6,48.71 -8.13,8.43 -19.13,11.56 -31.3,10.75 -6,-0.4 -12.19,-2.18 -17.07,-4.31 -2.52,-1.1 -4.71,-2.36 -6.91,-3.78 -2.11,-1.36 -2.63,-1.94 -4.28,-3.54 -0.66,-0.64 -0.88,-0.54 -1.53,-1.08l-2.66 -2.82c-0.53,-0.51 -1.86,-2.09 -2.39,-2.82 -1.42,-1.95 -2.99,-4.1 -4.18,-6.51 -2.56,-5.18 -4.7,-10.18 -3.9,-17.13 1.33,-11.55 9.86,-21.82 15.19,-27.28 5.03,-5.16 16.01,-14.16 26.96,-15.63zm1.01 -1.58c-11.13,1.09 -21.12,8.47 -28.44,15.44 -3.14,2.99 -7.56,8.49 -9.83,12.07 -2.69,4.25 -5.4,9.75 -6.16,15.95 -1.5,12.21 5.15,23.71 12.99,30.94 3.36,3.1 7.79,6.73 12.93,8.96 14.05,6.1 30.7,7.14 43.98,-1.25 2.1,-1.33 4.48,-3.06 6.16,-4.78 7.61,-7.78 12.4,-17.29 11.37,-32.6 -0.66,-9.77 -4.26,-20.4 -10.36,-27.89 -4.19,-5.14 -8.77,-9.35 -14.97,-12.67 -5.1,-2.74 -10.75,-4.85 -17.67,-4.17z"/>
   <path class="fil3" d="M300.13 54.35c-0.87,5.42 -3.45,11.16 -6.18,15.07 -9.55,13.73 -23.73,21.28 -42.7,21.08 -12.34,-0.13 -22.93,-7.14 -28.22,-14.2 -6.79,-9.08 -9.57,-20.1 -6.71,-33.94 1.85,-8.94 4.67,-15.2 10.06,-21.75l8.15 -7.76c8.3,-5.97 18.19,-9.7 28.49,-6.26 10.37,3.46 19.43,11.53 24.82,17.68 4.96,5.66 14.24,18 12.29,30.07zm-47.96 -50.5c-10.91,0.89 -21.22,8.87 -27.56,16.56 -10,12.14 -14.88,34.48 -6.65,50.81 1.25,2.47 2.88,4.68 4.37,6.57 14.8,18.87 45.02,17.95 62.81,3.4 11.06,-9.05 19.36,-22.92 15.48,-37.91 -4.61,-17.81 -28.45,-41.07 -48.46,-39.44z"/>
   <polygon class="fil1" points="323.48,229.18 379.38,229.18 379.46,222.28 323.36,222.13 "/>
   <polygon class="fil1" points="56.25,229 56.2,226.15 56.16,222.29 0.36,222.3 0.36,229.14 "/>
   <path class="fil4" d="M183.32 32.29c0.36,-0.43 -0.01,-0.29 0.73,-0.62 0.63,-0.28 2.19,-0.13 3.06,-0.18l8.24 0.31c1.92,0.33 3.72,0.82 4.82,-3l0.65 -1.7c1.38,-3.41 -0.73,-7.41 -0.82,-9.47l0.26 -0.26c-1.05,-0.42 -0.22,0.07 -1.05,-0.92 -0.66,-0.78 -0.4,-0.19 -0.83,-1.06 -3.2,0.42 -7.35,0.57 -10.75,0.45 -4.64,-0.17 -6.56,-1.67 -8.46,1.91 -2.81,5.32 -1.41,16.09 4.14,14.55z"/>
   <path class="fil0" d="M267.53 225.43c2.67,0.48 3.13,7.15 8.38,6.07l-0.05 -12.51 -3.42 -0.07 -0.09 6.14c-3.08,-1.37 -3.02,-7.04 -8.22,-6.06l0.02 12.56 3.34 0.15 0.05 -6.29z"/>
   <path class="fil0" d="M97.12 221.72c3.23,-0.45 5.82,0.04 5.72,3.65 -0.11,3.58 -2.57,3.81 -5.76,3.43l0.05 -7.08zm-3.46 9.98c6.33,0.08 12.83,0.47 12.72,-6.58 -0.1,-6.8 -6.54,-6.44 -12.74,-6.25l0.02 12.83z"/>
   <path class="fil0" d="M212.47 221.76c1.84,-0.28 2.45,-0.1 3.99,0.44l-0.24 2.81c-1.5,0.57 -1.9,0.62 -3.73,0.48l-0.02 -3.74zm5.46 6.23c1.32,-2.36 4.01,-4.98 0.74,-7.82 -2.15,-1.87 -6.29,-1.54 -9.66,-1.3l-0 12.82 3.46 0.02 0.05 -3.13c2.94,-0.64 2.8,1.48 4.07,3.11l3.53 -0.06c-0.52,-1.49 -1.64,-2.31 -2.19,-3.64z"/>
   <path class="fil0" d="M293.6 221.6c1.98,-0.12 3.95,-0.17 4,1.95 0.06,2.39 -1.93,2.18 -4.16,2.06l0.15 -4.01zm5.44 6.39c0.7,-0.99 1.85,-1.96 2.03,-3.66 0.66,-6.46 -6.76,-5.61 -11.03,-5.51l-0.05 12.92 3.48 -0.13 -0 -3.22c3.56,0.12 2.56,1.51 4.2,3.34l3.45 -0.01c-0.53,-1.4 -1.57,-2.47 -2.07,-3.72z"/>
   <path class="fil5" d="M198.59 221.73c4.87,-2.25 6.25,5.39 2.93,7.1 -4.51,2.32 -6.65,-5.38 -2.93,-7.1zm0.32 -2.92c-9.8,2.29 -5.9,14.34 2.25,13.07 9.22,-1.44 6.25,-15.05 -2.25,-13.07z"/>
   <path class="fil0" d="M111.93 223.4c-0.38,-2.8 3.61,-1.73 6.12,-1.92l-0.02 -2.83 -9.58 0.14 -0.04 12.94 9.9 0.18c-0.06,-3.01 0.29,-3.13 -3.16,-2.9 -1.96,0.13 -4.01,0.39 -3.06,-1.99 1.44,-0.62 3.57,-0.32 5.24,-0.32l-0.11 -2.63c-1.78,-0.16 -3.93,0.33 -5.3,-0.67z"/>
   <path class="fil0" d="M85.18 222.97l0.76 1.64c0.27,0.7 0.42,1.02 0.59,1.86l-2.91 -0.18 1.56 -3.32zm-3.53 8.72c0.37,-1.2 0.34,-2.29 1.94,-2.45 0.97,-0.09 3.22,-0.05 4.31,0.03l0.66 2.37 3.55 0.06c-0.34,-1.79 -4.22,-10.32 -5.17,-12.8 -3.95,-0.28 -3.52,-0.45 -5.66,4.94 -0.92,2.32 -2.63,5.42 -3.07,7.9l3.43 -0.05z"/>
   <path class="fil0" d="M255.5 223.3c-0.01,-2.53 1.18,-1.56 6.2,-1.82l0.02 -2.65 -9.71 -0.13 0.04 12.96 9.92 0.02 -0.18 -2.53c-2.28,-0.76 -6.09,0.89 -6.36,-0.94 -0.22,-1.49 0.86,-1.5 2.05,-1.51 1.15,-0.01 2.24,-0.02 3.46,-0.05l-0.08 -2.55c-2.05,-0.31 -3.99,0.32 -5.38,-0.81z"/>
   <path class="fil0" d="M184.06 221.73c1.27,-0.22 2.75,0.13 3.98,0.24l-0.14 3.41 -3.85 0.04 0.01 -3.7zm0.02 6.83c4.15,-0.81 9.18,-0.61 7.44,-6.51 -1.15,-3.89 -5.76,-3.22 -10.91,-3.41l0.04 13.26 3.41 -0.22 0.02 -3.13z"/>
   <path class="fil0" d="M303.27 231.54c1.73,0.43 7.63,0.14 9.85,0.16l-0.11 -2.65 -6.19 -0.02 -0.09 -1.82c1.47,-0.85 3.51,-0.34 5.42,-0.64l-0.06 -2.35c-1.79,-0.63 -3.75,0.45 -5.32,-0.92l-0.01 -1.32c1.86,-0.67 2.7,-0.36 4.47,-0.41 1.02,-0.03 1.08,0 1.64,-0.38l0.11 -2.28 -9.68 0.04 -0.03 12.59z"/>
   <path class="fil0" d="M148.32 221.71c2.62,-1.85 3.77,6.02 1.31,7.14 -3.05,1.38 -3.44,-5.63 -1.31,-7.14zm-0.36 -2.95c-7.26,1.94 -5.12,14.66 2.08,13.1 6.97,-1.52 5.16,-15.03 -2.08,-13.1z"/>
   <path class="fil0" d="M73.97 225.4l-3.34 0.25 -0.05 -4.12c2.97,0.21 5.57,0.39 3.39,3.87zm3.14 1.43c0.32,-0.6 0.2,-0.42 0.65,-0.68 1.12,-2.65 0.44,-5.38 -1.9,-6.58 -2.37,-1.21 -5.81,-0.83 -8.68,-0.68l-0.07 12.77 3.4 -0.09 0.11 -3.22c2.89,0.11 4.48,-0.45 6.48,-1.53z"/>
   <path class="fil0" d="M177.15 230.93l0.76 -0.56c1.05,-1.85 1.32,-4.31 -0.73,-5.47 -2.02,-1.14 -4.87,-0.5 -5.26,-3 3.33,-1.25 2.49,-0.08 5.6,0.23l0.45 -2.23c-1.69,-1.83 -2.55,-1.3 -5.42,-0.97 -2.14,0.24 -3.63,0.58 -4.1,2.62 -0.59,2.57 0.33,3.88 2.26,4.57 2.09,0.75 4.04,0.26 4.44,2.49 -3.65,1.35 -3.02,-0.11 -6.02,-0.42l-0.75 2.4c2.69,1.81 5.61,1.47 8.75,0.34z"/>
   <path class="fil5" d="M248.55 227.86c-1.72,0.48 -2.3,1.83 -4.54,1.14 -3.48,-1.07 -2.72,-6.38 -0.2,-7.44 1.75,-0.74 3.04,0.4 4.33,1.06 0.82,-0.48 1.41,-1.02 1.91,-1.67 -0.17,-0.26 -1.09,-1.46 -1.17,-1.53 -0.97,-0.78 -5.49,-0.77 -6.89,-0.18 -2.19,0.93 -3.96,3.19 -3.8,6.41 0.3,6.05 7.58,8.26 11.92,4.17 -0.28,-0.93 -1,-0.89 -1.54,-1.96z"/>
   <path class="fil0" d="M228.25 221.66l3.52 -0.22 0.17 -2.58 -8.58 -0.06c-0.32,-0.01 -1.04,-0.04 -1.31,-0.02l-1.18 0.35 0.05 1.7c2.88,2.26 3.61,-1.72 3.67,3.5 0.03,2.44 0.07,4.89 0.13,7.37l3.42 -0.01 0.12 -10.04z"/>
   <polygon class="fil0" points="277.5,221.56 281.15,221.57 281.2,231.66 284.58,231.57 284.68,221.6 288.43,221.48 288.46,218.93 277.41,218.92 "/>
   <path class="fil0" d="M129.72 229.25c-1.78,-0.13 -4.27,0.33 -5.89,-0.36l-0.07 -10.05c-0.63,0.01 -2.55,-0.17 -2.95,0.32 -0.97,2.44 -0.38,9.64 -0.33,12.76l9.44 -0.2 -0.21 -2.46z"/>
   <path class="fil0" d="M137.87 221.73l0.05 9.83 3.47 0.02 -0 -1.77 -0 -9.39 -0 -1.45 -5.82 -0.16c0.05,3.46 -0.04,2.06 2.31,2.92z"/>
   <polygon class="fil0" points="155.14,220.88 157.51,221.92 157.46,231.65 160.95,231.51 160.97,218.85 155.14,218.93 "/>
   <path class="fil6" d="M56.25 229l-55.9 0.14 0 -6.84 55.8 -0.01 0.04 3.86c0.41,-0.91 0.26,-2.84 0.2,-4.06l-56.19 -0.06c-0.36,1.5 -0.19,5.57 -0.09,7.27 2.49,0.26 42.78,0.07 49.33,0.01 1.13,-0.01 2.26,-0.02 3.39,-0.02 0.61,0 1.23,0.01 1.83,0.01 1.97,0 1.28,-0.08 1.57,-0.31z"/>
   <path class="fil7" d="M183.99 13.16l0.12 0.88c1.59,0.44 6.98,0.29 9.28,0.26 2.1,-0.03 2.67,-0.03 2.66,-0.89 -0.01,-0.9 -0.91,-0.8 -2.63,-1.14 -3.38,-0.68 -6.75,-0.86 -9.44,0.89z"/>
   <path class="fil8" d="M195.98 34.45c-0.4,-0.67 -0.89,-0.57 -1.82,-0.74 -1.8,-0.12 -3.41,-0.18 -5.21,-0.08 -1.45,0.07 -3.67,-0.09 -4.87,0.65 1.06,2.33 7.39,1.74 9.28,1.23 0.96,-0.26 1.66,-0.8 2.63,-1.06z"/>
   <path class="fil9" d="M183.32 32.29c2.75,-0.16 4.83,-0.36 7.71,-0.27 2.63,0.08 5.19,0.66 7.68,0.56 2.03,-3.29 4.39,-5.94 3.01,-11.34 -0.19,-0.74 -0.43,-1.35 -0.62,-1.93 -0.38,-1.19 -0.18,-1.31 -1.09,-1.68 0.1,2.06 2.2,6.07 0.82,9.47l-0.65 1.7c-1.09,3.83 -2.9,3.33 -4.82,3l-8.24 -0.31c-0.87,0.05 -2.44,-0.09 -3.06,0.18 -0.74,0.33 -0.37,0.18 -0.73,0.62z"/>
   <path class="fil10" d="M143.59 32.25c1.55,-2.56 -2.15,-4.92 -3.65,-2.64 -1.94,2.95 2.42,4.67 3.65,2.64z"/>
   <path class="fil10" d="M143.58 55.66c1.5,-3.78 -2.04,-4.64 -3.54,-3.01 -1.41,1.54 0.64,5.07 3.54,3.01z"/>
   <path class="fil10" d="M155.35 32.83c1.18,-2.86 -2.91,-4.66 -3.87,-2.1 -1.44,3.83 3.16,3.82 3.87,2.1z"/>
   <path class="fil10" d="M247.33 83.07c1.35,-2.52 -2.59,-4.68 -3.72,-2.47 -1.79,3.5 2.63,4.51 3.72,2.47z"/>
   <path class="fil11" d="M125.46 83.55c1.28,-2.59 -2.89,-4.23 -3.93,-1.96 -1.37,2.98 2.58,4.69 3.93,1.96z"/>
   <path class="fil10" d="M152.72 64.75c-1.12,-0.53 -1.58,-1.44 -3.19,-0.8 -0.87,0.35 -1.55,1.78 -1.03,2.99 0.67,1.56 4.47,2.21 4.22,-2.19z"/>
   <path class="fil11" d="M114.06 36.43c-4.1,-0.46 -4.24,3.06 -2.26,4.09 1.07,0.56 2.53,0.06 2.95,-0.93 0.59,-1.39 -0.18,-2.26 -0.69,-3.16z"/>
   <path class="fil12" d="M254.44 83.55c0.87,2.35 5.08,1.48 4.03,-1.73 -0.81,-2.46 -5.12,-1.2 -4.03,1.73z"/>
   <path class="fil2" d="M259.58 23.62c1.88,1.34 2.17,1.34 4.3,-0.03 0.4,-4.82 -4.77,-4.36 -4.3,0.03z"/>
   <path class="fil10" d="M132.46 82.51c0.22,1.05 1.31,1.81 2.69,1.5 1.3,-0.29 1.77,-1.16 1.39,-2.76 -0.66,-2.74 -4.7,-1.69 -4.08,1.27z"/>
   <path class="fil10" d="M265.81 25.89c-0.33,0.95 -1.15,2.28 -0.41,3.36 0.52,0.75 1.94,1.2 3.03,0.57 2.5,-1.44 0.97,-4.21 -2.62,-3.92z"/>
   <path class="fil2" d="M99.61 50.7c0.67,2.27 4.83,1.52 3.94,-1.69 -0.38,-1.37 -1,-1.71 -2.7,-1.2 -1.33,0.4 -1.73,1.24 -1.24,2.89z"/>
   <path class="fil12" d="M149.86 38.19c1.45,-2.34 -2.56,-4.62 -3.78,-2.19 -1.48,2.96 2.3,4.59 3.78,2.19z"/>
   <path class="fil13" d="M128.83 42.36c0.35,2.44 5.07,1.84 4.3,-1.25 -0.49,-1.97 -4.82,-2.37 -4.3,1.25z"/>
   <path class="fil11" d="M265.82 36.37c-0.4,0.97 -1.32,2.1 -0.56,3.46 0.44,0.78 1.89,1.18 2.89,0.67 1.16,-0.59 2.85,-4.14 -2.33,-4.13z"/>
   <path class="fil2" d="M109.19 51.49c0.45,1.87 5.14,1.95 4.14,-1.51 -0.25,-0.87 -1.5,-1.83 -2.83,-1.5 -0.86,0.22 -1.59,1.81 -1.31,3.01z"/>
   <path class="fil13" d="M142.13 77.3c1.38,-2.6 -2.98,-4.33 -4,-1.8 -1.11,2.77 2.64,4.35 4,1.8z"/>
   <path class="fil11" d="M246.96 69.73c-1.4,0.1 -2.83,0.06 -3.24,1.37 -1.12,3.56 3.65,3.73 4.08,1.69 0.24,-1.15 -0.53,-2.31 -0.84,-3.06z"/>
   <path class="fil10" d="M98.64 44.97c1.45,-2.67 -2.76,-4.39 -3.86,-2.12 -1.38,2.85 2.57,4.51 3.86,2.12z"/>
   <path class="fil10" d="M244.11 50.04c0.95,-1.67 1.68,-3.14 -0.81,-4.15 -2.02,-0.82 -2.65,1.15 -2.73,3.05 1.51,0.92 1.36,1.32 3.54,1.1z"/>
   <path class="fil11" d="M276.74 68.43c1.33,-2.93 -3.31,-4.06 -4.02,-1.72 -1.04,3.41 3.07,3.82 4.02,1.72z"/>
   <path class="fil10" d="M236.38 55.89c3.16,0.6 3.68,0.25 4,-2.96 -3.09,-1.84 -5.37,-1.09 -4,2.96z"/>
   <path class="fil14" d="M249.54 67.39c0.08,3.37 3.79,3.3 4.19,0.68 0.55,-3.62 -4.24,-2.95 -4.19,-0.68z"/>
   <path class="fil2" d="M116 23.56c1.98,1.35 2.76,1.55 4.42,-0.23 -0.28,-4.61 -4.67,-4 -4.42,0.23z"/>
   <path class="fil12" d="M130.34 66.51c-0.59,-0.39 -2.03,-1.5 -3.28,-0.81 -0.82,0.46 -1.13,1.98 -0.72,2.99 0.86,2.12 4.24,1.91 3.99,-2.18z"/>
   <path class="fil2" d="M229.83 37.67c0.52,2.43 4.77,2.34 4.24,-1 -0.45,-2.87 -4.81,-1.7 -4.24,1z"/>
   <path class="fil12" d="M259.74 64.44c0.41,-5.67 -3.44,-3.26 -3.77,-2.76 -1.02,1.5 -0.07,4.98 3.77,2.76z"/>
   <path class="fil14" d="M269.77 48.44c-4.07,-0.16 -3.98,3.44 -2.17,4.17 1.03,0.42 2.73,0.04 3.07,-0.98 0.37,-1.12 -0.44,-2.5 -0.9,-3.19z"/>
   <path class="fil14" d="M230.38 55.95c0.64,-5.07 -3.2,-3.72 -3.85,-2.35 -0.48,1.01 -0.24,2.37 0.7,2.9 1.39,0.78 2.28,-0.04 3.16,-0.55z"/>
   <path class="fil2" d="M263.67 44.97c1.61,-2.83 -2.26,-4.39 -3.5,-2.59 -0.57,0.83 -0.69,2.77 0.34,3.28 1.22,0.6 2.71,0.1 3.16,-0.69z"/>
   <path class="fil14" d="M104.18 39.49c1.44,-2.52 -2.76,-4.74 -3.78,-2.22 -1.43,3.56 2.77,3.98 3.78,2.22z"/>
   <path class="fil11" d="M273.98 46.37c2.47,-1.77 0.49,-5.27 -2.19,-3.82 -0.83,0.45 -1.6,2.84 -0.34,3.62 0.55,0.35 1.73,0.47 2.53,0.2z"/>
   <path class="fil14" d="M148.99 26.91c1.54,-1.81 -1.69,-5.11 -3.41,-2.91 -2.35,3.02 2,4.56 3.41,2.91z"/>
   <path class="fil14" d="M138.9 22.06c0.6,0.42 1.65,1.32 2.93,0.8 2.04,-0.82 1.65,-4.94 -1.69,-4.02 -1.56,0.43 -1.35,1.58 -1.25,3.22z"/>
   <path class="fil12" d="M106.41 65.48c-4.9,-0.05 -3.69,3.5 -2.27,4.06 1.03,0.41 2.75,0.03 3.04,-0.93 0.47,-1.56 -0.33,-2.35 -0.77,-3.12z"/>
   <path class="fil10" d="M227.29 66.35c0.58,2.71 4.59,2.16 4.21,-0.77 -0.36,-2.8 -4.87,-2.28 -4.21,0.77z"/>
   <path class="fil2" d="M149.43 53.36c-0.17,2.23 0.48,4.09 2.92,3.31 2.54,-0.82 1.12,-6.32 -2.92,-3.31z"/>
   <path class="fil12" d="M265.75 84.34c0.55,2.83 4.77,1.78 4.17,-0.92 -0.58,-2.62 -4.81,-2.37 -4.17,0.92z"/>
   <path class="fil13" d="M93.07 67.39c0.61,2.31 4.44,2.07 4.14,-1.04 -0.14,-1.51 -1.04,-1.89 -2.59,-1.59 -1.42,0.28 -2.02,0.87 -1.55,2.63z"/>
   <path class="fil11" d="M132.98 69.83c-2.79,5.2 2.01,4.2 2.26,4.08 1.49,-0.75 2.3,-4.5 -2.26,-4.08z"/>
   <path class="fil14" d="M246.85 42.36c0.64,2.42 5,1.98 4.15,-1.26 -0.69,-2.63 -4.9,-1.56 -4.15,1.26z"/>
   <path class="fil11" d="M108.91 46.04c0.15,-1.49 0.3,-2.85 -0.76,-3.46 -2.87,-1.67 -4.46,2.49 -2.39,3.71 0.99,0.58 2.21,-0.02 3.15,-0.24z"/>
   <path class="fil10" d="M261.24 66.89c-0.15,1.21 -0.46,2.67 0.71,3.36 1.29,0.76 2.48,0.35 2.99,-0.65 1.37,-2.72 -1.12,-4.08 -3.7,-2.71z"/>
   <path class="fil11" d="M281.53 55.66c0.43,1.99 4.76,2.68 4.24,-0.78 -0.5,-3.34 -4.8,-1.8 -4.24,0.78z"/>
   <path class="fil14" d="M237.69 77.04c0.71,2.44 4.92,1.88 4.18,-1.26 -0.62,-2.63 -5,-1.59 -4.18,1.26z"/>
   <path class="fil2" d="M119.87 45.5c0.26,-1.03 0.52,-2.54 -0.31,-3.39 -0.8,-0.82 -2.5,-0.41 -3.05,0.04 -0.82,0.67 -0.7,2.34 -0.07,3.11 0.88,1.07 2.21,0.58 3.43,0.24z"/>
   <path class="fil10" d="M114.69 68.69c0.45,3.02 4.45,2.49 4.14,-0.78 -0.25,-2.61 -4.57,-2.09 -4.14,0.78z"/>
   <path class="fil2" d="M276.36 50.97c1.11,0.83 3.29,2.04 3.97,-0.43 0.7,-2.52 -1.03,-2.97 -3.19,-2.88 -0.76,1.31 -1.03,1.4 -0.79,3.31z"/>
   <path class="fil10" d="M139.32 48.87c-0.03,-1.37 -0.19,-2.72 -1.42,-3.17 -0.66,-0.24 -2.41,0.56 -2.75,1.27 -0.42,0.88 -0.09,5.21 4.17,1.9z"/>
   <path class="fil15" d="M113.39 85.86c1.86,-2.67 0.08,-5.27 -2.39,-3.87 -0.78,0.44 -1.46,1.71 -0.87,2.94 0.54,1.12 2.05,0.99 3.27,0.93z"/>
   <path class="fil2" d="M126.19 28.38c0.02,-1.75 -0.24,-3.25 -2.16,-3.23 -2.08,0.02 -2.09,1.39 -2.17,3.21 2.29,1.41 1.98,1.65 4.32,0.02z"/>
   <path class="fil16" d="M253.6 35.17c-1.62,2.61 0.39,5.17 2.91,3.57 1.31,-0.83 1.52,-4.59 -2.91,-3.57z"/>
   <path class="fil12" d="M236.23 31.93c1.02,2.05 5.11,1.09 3.95,-1.94 -0.88,-2.29 -5.43,-1.04 -3.95,1.94z"/>
   <path class="fil10" d="M281.06 44.45c0.51,2.64 4.85,2.03 4.27,-0.96 -0.51,-2.62 -4.83,-1.93 -4.27,0.96z"/>
   <path class="fil2" d="M254.71 25.27c-0.93,1.14 -1.76,2.7 -0.07,3.8 1.59,1.04 2.41,-0.11 3.4,-0.81 -0.08,-2.64 -0.51,-3.34 -3.33,-3z"/>
   <path class="fil11" d="M267.22 62.44c0.34,2.84 4.54,2.32 4.28,-0.45 -0.28,-3.11 -4.62,-2.3 -4.28,0.45z"/>
   <path class="fil10" d="M260.36 79.74c0.92,0.51 1.48,1.34 3.04,0.59 4.2,-2.02 -3.14,-7.89 -3.04,-0.59z"/>
   <path class="fil12" d="M265.86 58.04c0.66,-1.03 0.28,-2.59 -0.66,-3.04 -1.48,-0.71 -2.61,-0.34 -3.06,0.89 -1.2,3.24 2.62,3.87 3.73,2.15z"/>
   <path class="fil14" d="M120.22 64.5c5.08,2.65 5.79,-4.48 0.72,-3.53 -0.86,1.27 -0.94,1.51 -0.72,3.53z"/>
   <path class="fil12" d="M132.91 61.13c0.12,2.67 4.6,2.36 4.35,-0.48 -0.22,-2.42 -4.49,-2.91 -4.35,0.48z"/>
   <path class="fil11" d="M249.05 23.91c4.34,0.71 4.32,-3.06 2.59,-3.85 -1.13,-0.52 -2.43,-0.49 -2.92,0.5 -0.58,1.15 -0.01,2.51 0.33,3.35z"/>
   <path class="fil14" d="M136.78 24.33c-3.42,-1.24 -3.69,1.74 -2.62,3.93 1.52,0.14 2.8,0.21 3.38,-1.07 0.46,-1.03 0.12,-2.25 -0.76,-2.86z"/>
   <path class="fil17" d="M270.26 74.98c1.65,-3.14 -2.96,-4.42 -3.63,-2.33 -1.08,3.36 2.51,4.46 3.63,2.33z"/>
   <path class="fil2" d="M219.92 38.97c0.6,1.72 5.46,1.67 3.74,-2.14 -1.17,-2.6 -4.64,-0.43 -3.74,2.14z"/>
   <path class="fil10" d="M110.48 26.94c-0.77,5.18 7.05,3.37 3.38,-1.06 -1.66,-0.06 -2.43,0.42 -3.38,1.06z"/>
   <path class="fil17" d="M231.55 60.09c0.06,2.18 4.46,3.33 4.36,-0.26 -0.04,-1.59 -0.78,-1.98 -2.37,-1.84 -1.2,0.11 -2.02,0.86 -1.99,2.1z"/>
   <path class="fil17" d="M149.33 49.74c1.14,-2.49 -2.74,-4.39 -3.95,-2.2 -1.74,3.16 3.08,4.08 3.95,2.2z"/>
   <path class="fil2" d="M237.72 19.24c-2.13,1.93 -0.02,4.56 2.29,3.53 1.96,-0.88 1.39,-4.39 -1.26,-4.05 -1.67,0.21 -0.62,0.14 -1.04,0.52z"/>
   <path class="fil10" d="M98.33 61.92c0.39,2.31 4.82,2.1 4.27,-0.98 -0.46,-2.54 -4.81,-2.2 -4.27,0.98z"/>
   <path class="fil10" d="M126.36 35.11c-1.21,-0.18 -2.78,-0.46 -3.44,0.7 -0.28,0.48 -0.78,2.38 0.7,3.06 1.39,0.63 4.27,0.52 2.74,-3.76z"/>
   <path class="fil11" d="M237.75 66.35c0.33,2.76 4.21,2.2 4.22,-0.53 0.01,-1.41 -0.95,-2.05 -2.43,-1.87 -1.55,0.19 -1.99,0.78 -1.8,2.4z"/>
   <path class="fil13" d="M107.74 54.45c-3.57,-1.51 -5.01,0.4 -3.27,3.51 1.36,0.21 2.44,0.25 3.2,-0.68 0.44,-0.98 0.25,-1.63 0.07,-2.83z"/>
   <path class="fil12" d="M108.46 62.7c0.36,2.43 4.76,2.05 4.19,-1.03 -0.43,-2.34 -4.71,-2.4 -4.19,1.03z"/>
   <path class="fil2" d="M242.64 61.13c0.32,2.61 4.54,2.4 4.35,-0.46 -0.2,-3.15 -4.67,-2.11 -4.35,0.46z"/>
   <path class="fil11" d="M142.16 64.83c-2.43,-1.97 -5.31,-0.43 -3.91,2.16 0.52,0.97 1.82,1.59 3,0.93 1.01,-0.57 0.99,-1.8 0.91,-3.09z"/>
   <path class="fil10" d="M282.14 73.39c0.91,-3.5 -3.85,-2.84 -4.25,-0.97 -0.27,1.24 0.57,2.23 1.6,2.48 1.9,0.46 2.29,-0.15 2.65,-1.51z"/>
   <path class="fil11" d="M127.44 23.11c3.5,2.52 4.48,-0.28 3.83,-2.33 -0.46,-1.48 -4.58,-2.06 -3.83,2.33z"/>
   <path class="fil10" d="M277.39 62.18c0.61,2.28 4.95,1.66 4.06,-1.48 -0.76,-2.67 -4.84,-1.43 -4.06,1.48z"/>
   <path class="fil13" d="M258.56 71.32c-1.16,-0.38 -2.86,-0.65 -3.49,0.66 -0.74,1.53 0.41,2.49 0.79,3.34 1.18,-0 2.12,-0.45 3.12,-0.97 0.17,-1.39 0.14,-1.92 -0.42,-3.03z"/>
   <path class="fil10" d="M224.52 32.45c0.5,1.99 4.7,2.43 4.03,-1.26 -0.52,-2.84 -4.76,-1.62 -4.03,1.26z"/>
   <path class="fil11" d="M94.17 56.37c3.27,2.48 4.87,-0.74 4.03,-2.23 -0.62,-1.11 -4.35,-2.76 -4.03,2.23z"/>
   <path class="fil14" d="M150.59 42.1c-0.15,1.75 -0.31,2.66 1.27,3.19 1.47,0.49 2.24,-0.12 2.66,-1.14 1.07,-2.6 -1.56,-3.9 -3.93,-2.05z"/>
   <path class="fil14" d="M279.51 39.49c1.18,-3.2 -2.36,-4.34 -3.65,-2.26 -1.68,2.71 2.78,4.61 3.65,2.26z"/>
   <path class="fil11" d="M131.62 54.08c-0.91,-0.34 -2.27,-1 -3.33,-0.43 -0.91,0.5 -1.08,1.84 -0.48,2.91 1.08,1.93 4.34,1.8 3.81,-2.48z"/>
   <path class="fil10" d="M119.55 79.69c0.05,-1.59 -0.16,-3.26 -1.81,-3.48 -1.91,-0.26 -2.49,1.31 -2.41,3.07 2.84,2.19 2.02,1.46 4.21,0.41z"/>
   <path class="fil2" d="M282.96 68.01c0.47,0.58 1.95,1.28 2.99,0.69 0.88,-0.5 0.97,-1.85 0.93,-3.13 -2.47,-2 -5.15,-0.46 -3.91,2.44z"/>
   <path class="fil10" d="M98.08 71.19c-1.27,3.25 1.14,4.98 3.28,3.24 0.91,-0.74 0.97,-2.07 0.22,-2.84 -0.84,-0.86 -2.22,-0.6 -3.5,-0.41z"/>
   <path class="fil11" d="M123.77 75.38c0.55,-0.63 1.15,-1.16 1.28,-2.04 0.15,-1.02 -0.19,-1.85 -1.14,-2.17 -2.92,-0.99 -3.14,1.04 -3.01,3.27l2.87 0.94z"/>
   <path class="fil10" d="M251.72 32.45c1.38,-2.33 -3,-4.45 -3.93,-1.63 -1.04,3.16 2.63,3.83 3.93,1.63z"/>
   <path class="fil10" d="M234.81 49.71c0.03,-1.53 -0.21,-2.79 -1.37,-3.06 -4.54,-1.04 -3.6,6.91 1.37,3.06z"/>
   <path class="fil11" d="M245.68 37.35c0.05,-3.5 -2.84,-4.44 -3.97,-1.89 -0.57,1.3 -0.27,2.24 0.89,2.8 1.44,0.69 2.32,-0.26 3.08,-0.91z"/>
   <path class="fil10" d="M138.47 37.51c0.06,-3.89 -2.89,-4.46 -3.96,-2.1 -0.62,1.37 -0.17,2.36 0.92,2.87 1.48,0.7 2.18,-0.42 3.03,-0.77z"/>
   <path class="fil12" d="M260.12 30.6c-2.06,2.66 -0.42,5.52 2.87,3.71 0.35,-0.92 0.55,-2.03 0.01,-2.85 -0.43,-0.67 0.07,-0.46 -1.13,-0.73 -0.57,-0.13 -1.17,-0.13 -1.75,-0.13z"/>
   <path class="fil12" d="M144.24 58.41c-0.42,2.35 -0.3,1.93 0.48,3.6 2.39,0.11 3.96,-0.27 3.51,-2.97 -1.08,-1.41 -2.22,-1.22 -3.98,-0.63z"/>
   <path class="fil13" d="M229.33 42.1c-5.06,-3.75 -5.37,5 -1.04,3.12 1.4,-0.61 1.17,-1.55 1.04,-3.12z"/>
   <path class="fil14" d="M275.5 57.93c1.71,-3.56 -0.1,-4.74 -3.3,-3.5 -0.24,1.21 -0.35,1.76 0.02,2.96 0.89,0.61 1.76,0.84 3.28,0.54z"/>
   <path class="fil11" d="M235.19 43.67c2.01,1.44 2.86,1.04 4.5,-0.28 -0.48,-2.29 -0.6,-3.42 -3.55,-2.81 -0.74,1.11 -0.99,1.56 -0.94,3.09z"/>
   <path class="fil11" d="M140.3 43.4c1.61,1.53 2.66,1.58 4.38,0.26 0.15,-1.47 -0.43,-2.11 -0.77,-3.19 -2.77,-0.11 -3.45,0.23 -3.61,2.93z"/>
   <path class="fil11" d="M121.78 47.2c-1.61,2.53 0.47,5.04 2.84,3.59 0.93,-0.57 1.09,-2.3 0.42,-3.16 -0.67,-0.87 -2.17,-0.56 -3.26,-0.43z"/>
   <path class="fil2" d="M157.4 62.41c3.05,-6.56 -5.51,-4.14 -3.3,-0.87 0.66,0.97 2,0.89 3.3,0.87z"/>
   <path class="fil13" d="M226.03 61.13c0.57,-4.33 -6.65,-3.69 -3.45,1.22 1.89,0.19 2.61,0.06 3.45,-1.22z"/>
   <path class="fil12" d="M254.85 47.51c-1.14,3.86 2.12,4.37 3.33,3.08 1.69,-1.8 -0.03,-4.84 -3.33,-3.08z"/>
   <path class="fil14" d="M243 24.25c-1.47,2.58 -0.9,4.62 2.76,3.97 0.42,-0.91 0.75,-2.07 0.52,-3.32 -0.89,-0.74 -1.89,-0.81 -3.28,-0.65z"/>
   <path class="fil11" d="M220.95 48.1c-0.06,1.29 -0.06,2.77 1.15,3.11 1.36,0.37 2.6,-0.12 2.93,-1.17 0.88,-2.79 -2.04,-3.67 -4.09,-1.93z"/>
   <path class="fil10" d="M126.81 75.9c-0.46,2.84 0.25,3.81 3.21,3.48 1.19,-1.73 1.59,-5.6 -3.21,-3.48z"/>
   <path class="fil11" d="M120.46 34.37c0.39,-1.31 0.22,-2.72 -0.61,-3.74 -3.4,-0.14 -3.6,0.97 -2.99,3.77 1.71,0.44 2.12,0.49 3.59,-0.03z"/>
   <path class="fil10" d="M249.38 75.66c-0.38,1.47 -0.35,2.65 0.57,3.75 3.11,0.13 3.29,-0.58 3.23,-3.53 -1.64,-0.52 -2.17,-0.99 -3.8,-0.22z"/>
   <path class="fil10" d="M116.92 54.74c-4.33,-0.25 -3.71,3.32 -1.79,4.06 2.64,1.01 3.72,-1.81 1.79,-4.06z"/>
   <path class="fil2" d="M234.83 26.77c0.28,-4.93 -3.22,-3.44 -3.88,-2.35 -0.7,1.17 -0.26,2.57 0.63,2.95 1.3,0.55 2.48,-0.21 3.25,-0.6z"/>
   <path class="fil10" d="M131.43 29.55c-1.5,-0.05 -2.91,0.16 -3.34,1.25 -0.52,1.28 0.52,2.38 1.17,2.72 0.62,0.33 4.68,0.8 2.18,-3.97z"/>
   <path class="fil10" d="M159.91 39.23c0.55,-3.56 -2.35,-4.59 -3.56,-2.61 -1.54,2.53 0.62,4.56 3.56,2.61z"/>
   <path class="fil11" d="M158.75 50.18c0.52,-1.62 0.58,-2.28 -0.88,-2.8 -1.07,-0.39 -2.24,-0.22 -2.79,0.74 -1.62,2.83 2.89,4.49 3.67,2.07z"/>
   <path class="fil10" d="M112.99 71.91c-1.42,-0.19 -2.77,-0.4 -3.41,0.64 -0.6,0.97 -0.03,2.35 0.6,2.95 2.13,2.03 3.82,-0.59 2.81,-3.59z"/>
   <path class="fil11" d="M248.24 54.18c-0.24,5.5 4.81,4.04 4.01,-0.05 -1.48,-0.93 -2.37,-0.78 -4.01,0.05z"/>
   <path class="fil18" d="M129.72 229.25c-0.39,-0.46 0.53,-0.43 -0.74,-0.35l-4.88 -0.08 -0.02 -7.61c0.02,-2.56 0.15,-1.89 -0.32,-2.38l0.07 10.05c1.62,0.7 4.11,0.24 5.89,0.36z"/>
   <path class="fil19" d="M251.26 203.14c0.49,0.73 7.32,0.38 8.11,0.28 0.11,-0.59 0.14,-7.61 -0.36,-8.51l0.23 8.36 -7.98 -0.13z"/>
   <path class="fil20" d="M177.03 203.52c1.14,0.44 6.87,0.41 7.64,0.14l0.1 -6.96c-0.09,-0.71 0.04,-0.38 -0.33,-0.76l0.03 7.59 -7.44 -0.01z"/>
   <path class="fil21" d="M200.27 17.36c-0.31,-1.32 0.18,0.06 -0.2,-0.67 -0.17,-0.32 -0.26,-0.4 -0.47,-0.62 -0.36,-0.37 -0.59,-0.54 -1.21,-0.69 0.43,0.87 0.16,0.28 0.83,1.06 0.84,0.98 0,0.5 1.05,0.92z"/>
   <path class="fil22" d="M184.1 14.05l-0.12 -0.88c-1.09,0.34 -0.26,0.01 -0.54,0.52l0.66 0.36z"/>
   <path class="fil6" d="M146.69 7.09l-0.76 -0.52c0.27,0.36 -0.17,0.24 0.76,0.52z"/>
   <path class="fil18" d="M173.03 110.04c-0.25,-0.49 -0.09,-0.36 -0.65,-0.66l0.65 0.66z"/>
   <path class="fil23" d="M77.11 226.83l0.65 -0.68c-0.46,0.26 -0.34,0.07 -0.65,0.68z"/>
   <polygon class="fil18" points="176.55,119.76 177.19,119.13 "/>
   <polygon class="fil24" points="177.15,230.93 177.91,230.37 "/>
   <polygon class="fil6" points="196.65,132.3 196.01,131.65 "/>
   <polygon class="fil6" points="88.19,80.16 87.54,79.5 "/>
   <polygon class="fil23" points="91.03,17.57 91.69,16.93 "/>
  </g>
 </g>
</svg>
