<?xml version="1.0" encoding="UTF-8"?>
<!DOCTYPE svg PUBLIC "-//W3C//DTD SVG 1.1//EN" "http://www.w3.org/Graphics/SVG/1.1/DTD/svg11.dtd">
<!-- Creator: CorelDRAW -->
<svg xmlns="http://www.w3.org/2000/svg" xml:space="preserve" width="45.3837mm" height="40.064mm" version="1.1" style="shape-rendering:geometricPrecision; text-rendering:geometricPrecision; image-rendering:optimizeQuality; fill-rule:evenodd; clip-rule:evenodd"
viewBox="0 0 143.52 126.7"
 xmlns:xlink="http://www.w3.org/1999/xlink"
 xmlns:xodm="http://www.corel.com/coreldraw/odm/2003">
 <defs>
  <style type="text/css">
   <![CDATA[
    .fil1 {fill:#020202}
    .fil0 {fill:#030303}
    .fil14 {fill:#292925}
    .fil12 {fill:#292929}
    .fil2 {fill:#2B2728}
    .fil8 {fill:#2D2926}
    .fil11 {fill:#2D292A}
    .fil10 {fill:#2E2528}
    .fil13 {fill:#2E292A}
    .fil15 {fill:#302826}
    .fil9 {fill:#31262A}
    .fil16 {fill:#6B6A6A}
    .fil21 {fill:#757575}
    .fil22 {fill:#7E7E7E}
    .fil4 {fill:#82D64A}
    .fil20 {fill:#848383}
    .fil5 {fill:#87D554}
    .fil6 {fill:#8AD054}
    .fil7 {fill:#91CC6B}
    .fil17 {fill:#A6A6A6}
    .fil19 {fill:#CBEEB1}
    .fil18 {fill:#DBF8CA}
    .fil3 {fill:whitesmoke}
   ]]>
  </style>
 </defs>
 <g id="Layer_x0020_1">
  <metadata id="CorelCorpID_0Corel-Layer"/>
  <g id="_2659967577232">
   <path class="fil0" d="M86.69 49.89c1.47,-0.56 2.45,1.3 3.09,2.05 3.6,4.24 7.63,4.81 0.18,7.23 -2.6,0.84 -6.97,2.7 -6.33,-1.93 0.21,-1.5 0.77,-2.72 1.17,-4.06 0.43,-1.43 0.54,-2.79 1.88,-3.3zm-30.67 0.08c2.37,-1.36 3.37,4.49 3.85,6.29 0.44,1.61 0.55,3.19 -0.88,3.84 -1.24,0.56 -2.96,-0.27 -4.12,-0.62 -2.46,-0.74 -7.11,-1.32 -4.24,-4.34 1.16,-1.23 1.94,-1.82 2.74,-2.61 0.9,-0.89 1.42,-1.85 2.66,-2.57zm54.45 -47.58c12.43,-1.01 27.24,13.44 30.1,24.5 2.41,9.31 -2.75,17.93 -9.62,23.55 -11.05,9.04 -29.83,9.61 -39.02,-2.11 -0.93,-1.18 -1.94,-2.55 -2.71,-4.08 -5.11,-10.14 -2.08,-24.03 4.13,-31.56 3.94,-4.78 10.34,-9.74 17.12,-10.29zm-80.3 0.02c4.3,-0.42 7.81,0.89 10.98,2.59 3.85,2.07 6.7,4.68 9.3,7.87 3.79,4.65 6.02,11.25 6.43,17.32 0.64,9.51 -2.33,15.42 -7.06,20.25 -1.05,1.07 -2.53,2.15 -3.83,2.97 -8.25,5.22 -18.59,4.57 -27.32,0.78 -3.19,-1.39 -5.95,-3.65 -8.03,-5.57 -4.87,-4.49 -9,-11.64 -8.07,-19.22 0.47,-3.85 2.15,-7.27 3.83,-9.91 1.41,-2.22 4.15,-5.64 6.11,-7.5 4.55,-4.33 10.75,-8.92 17.67,-9.59zm-19.4 8.1l-0.41 0.4c-3.18,3.55 -3.38,3.33 -6.25,7.93 -1.69,2.73 -3.34,6.47 -3.92,10.3 -1.02,6.71 2.22,13.61 6.31,18.45 0.46,0.54 1.24,1.4 1.69,1.79l0.4 0.41c1.59,2.27 7.43,5.94 10.31,7.26 10.57,4.84 18.4,4.03 29.58,5.76 4.1,0.64 6.55,1.48 10.23,2.87 1.38,0.52 1.47,1.14 2.18,2.26 0.35,0.19 0.25,0.11 0.4,0.41 1.38,0.61 1.57,0.29 2.57,1.39l1.91 2.08c-0.28,0.77 -1.28,1.78 -1.9,2.18l-0.4 0.39c-0.81,0.81 -1.68,1.68 -2.56,2.55 -0.93,0.91 -2.01,1.28 -3.09,2.09 -1.28,0.96 -0.48,3.01 0.22,3.82 0.36,0.42 0.87,0.82 1.3,1.29 1.16,1.28 3.12,3.33 5.07,2.29 0.6,-0.32 0.7,-0.88 1.05,-1.54 1.11,-2.08 2.59,-2.8 3.74,-4.19 0.58,-0.7 1.82,-2.26 2.78,-2.6 0.62,0.51 1.08,1.11 1.79,1.8 0.67,0.64 1.15,1.25 1.78,1.87l0.4 0.41c0.54,0.82 1.61,1.46 2.18,2.44 0.66,1.14 0.84,2.34 2.68,2 2.03,-0.37 8.2,-5.67 4.74,-7.8 -1.2,-0.74 -1.83,-1.01 -2.84,-2.02 -0.75,-0.75 -1.56,-1.71 -2.41,-2.44 -0.74,-0.64 -1.93,-1.6 -2.36,-2.53 1.7,-2.77 3.66,-2.83 4.8,-3.81 1.68,-1.45 -1.06,-1.3 5.18,-3.41 4.74,-1.6 9.3,-2.07 14.52,-2.6 12.01,-1.22 17.87,-1.97 26.9,-7.48 1.32,-0.81 3.88,-2.76 4.83,-3.76 0.47,-0.5 0.64,-0.66 1.03,-1.07 4.15,-4.24 7.45,-8.76 8.17,-15.46 1.01,-9.37 -4.3,-18.07 -10.41,-23.89 -4.75,-4.52 -13.51,-11.72 -23.92,-10.13 -9.02,1.37 -16.41,8.5 -19.98,14.35 -2.14,3.5 -4.15,7.37 -5.14,12.03 -1.67,7.79 -1.29,7.38 -2.05,15.1 -0.49,4.98 -1.79,13.19 -3.93,17.47 -0.79,1.58 -1.49,0.84 -2.38,1.99 -0.72,0.92 -0.32,1.55 -1.57,2.8 -0.76,0.76 -1.51,1.61 -2.34,1.96 -0.54,-0.36 -2.34,-2.17 -2.66,-2.77 -0.31,-0.59 -0.48,-1.39 -0.84,-1.92 -1.17,-1.73 -1.97,1.4 -4.64,-9.11 -3.18,-12.52 -0.49,-23.15 -8.03,-36.2 -4.7,-8.14 -9.94,-10.73 -10.57,-11.52 -0.58,-0.17 -0.31,-0.1 -0.47,-0.32 -3.09,-1.7 -4.21,-2.82 -8.3,-3.65 -3.47,-0.7 -7.69,-0.6 -10.79,0.64 -2.97,1.18 -5.56,2.26 -8.08,3.9 -1.16,0.76 -2.35,1.7 -3.36,2.64 -0.63,0.58 -1.08,0.89 -1.64,1.43 -0.53,0.51 -0.94,1.1 -1.52,1.48z"/>
   <path class="fil1" d="M109.9 126.19l4.96 0.08 -0.15 -5.19 -0.28 -15.66 -5.34 0.07 0.01 10.86c-0.98,-0.62 -6.27,-7.15 -7.51,-8.68 -0.24,-0.29 -0.5,-0.59 -0.69,-0.93 -0.75,-1.32 -1.09,-1.35 -3.47,-1.34 -2.52,0.01 -2.52,-0.28 -2.54,0.75 -0.09,4.27 0.02,8.69 0.02,12.98 0,2.14 -0.08,4.38 -0.03,6.5 0.02,1.01 0.05,0.74 2.39,0.74 1.12,-0 2.26,0.02 3.37,-0.01l0.08 -10.7c0.58,0.25 8.45,10.02 9.18,10.54z"/>
   <path class="fil1" d="M42.47 105.48c-1.54,3.31 2.69,16.07 -4,16.22 -6.7,0.16 -3.3,-11.4 -4.22,-16.31l-5.78 0.01c-0.48,2.88 -0.26,13.35 0.71,16.04 1.37,3.8 6.69,6.03 11.75,5 8.66,-1.77 7.35,-11.04 7.24,-18.17 -0.05,-3.2 0.53,-2.83 -1.43,-2.82 -1.31,0 -3.01,-0.15 -4.27,0.04z"/>
   <path class="fil1" d="M70.92 105.57c-0.41,1.67 -0.18,13.43 0.34,14.93 0.78,2.26 1.33,3.18 3.28,4.5 3.85,2.6 13.46,2.85 15.45,-4.57 1.13,-4.22 0.57,-10.23 0.57,-14.86l-5.91 -0.28c0.18,3.29 0.07,6.82 0.04,10.11 -0.02,3.46 -0.31,6.28 -3.95,6.31 -6.38,0.06 -3,-9.8 -4.08,-16.28 -0.97,-0.07 -5.1,-0.15 -5.74,0.14z"/>
   <path class="fil1" d="M63.78 126.43l4.62 0 -0.02 -4.71 -9.93 -0.02 0 -16.37 -5.88 0.08c-0.28,1.59 -0.06,14.58 -0.06,18.25 0,0.43 -0,0.86 -0.01,1.3l0.03 0.96c0.01,0.06 0.02,0.1 0.03,0.15 0.01,0.05 0.03,0.1 0.04,0.14 0.01,0.04 0.02,0.1 0.04,0.14l11.12 0.08z"/>
   <path class="fil2" d="M4.33 32.79c-0.44,-6.9 4.73,-14.26 7.85,-17.39 4.18,-4.2 8.53,-8.46 15,-10.41 9.91,-2.99 20.6,5.75 24.05,12.61 4.88,9.71 5.65,21.12 -1.05,29.48 -6.7,8.35 -17.56,9.86 -28.2,6.27 -2.76,-0.93 -6.59,-2.96 -8.19,-4.61 -0.26,-0.26 -0.43,-0.54 -0.69,-0.79 -0.47,-0.47 -0.8,-0.24 -2.54,-2.31 -2.84,-3.37 -5.91,-7.83 -6.23,-12.85zm25.22 -29.39c-6.8,0.92 -13.62,6.51 -16.75,9.71 -3.31,3.4 -8.61,9.78 -9.44,16.95 -0.5,4.31 0.83,7.42 2.42,10.64 0.74,1.49 1.72,2.83 2.6,4.04 0.33,0.46 1.15,1.43 1.48,1.75l1.65 1.75c0.41,0.33 0.54,0.27 0.95,0.67 1.02,0.99 1.34,1.35 2.66,2.2 1.37,0.88 2.73,1.66 4.29,2.35 3.03,1.33 6.88,2.43 10.6,2.68 7.56,0.5 14.39,-1.44 19.44,-6.68 7.63,-7.92 8.44,-19.59 3.73,-30.26 -1.2,-2.72 -3.28,-6.05 -5.4,-7.88 -2.69,-2.33 -3.29,-3.61 -7.46,-5.66 -3.14,-1.55 -6.51,-2.83 -10.79,-2.25z"/>
   <path class="fil2" d="M110.58 4.41c6.92,-0.77 14.25,4.56 17.53,7.58 1.67,1.54 4.67,4.68 6.09,6.7 4.28,6.09 6.61,11.77 3.89,18.99 -1.26,3.34 -3.9,7.12 -6.45,9.42 -3.16,2.84 -5.15,4.47 -9.6,6.12 -17.45,6.46 -33.15,-3.39 -33.44,-19.93 -0.13,-7.27 2.59,-15.14 6.22,-19.27 4.04,-4.59 9.07,-8.86 15.75,-9.6zm29.68 29.36c1.21,-7.5 -4.55,-15.16 -7.63,-18.68 -3.35,-3.82 -8.97,-8.83 -15.42,-10.99 -6.4,-2.14 -12.54,0.18 -17.7,3.89l-5.06 4.82c-3.35,4.07 -5.1,7.96 -6.25,13.51 -1.77,8.6 -0.05,15.44 4.17,21.08 3.29,4.39 9.87,8.74 17.53,8.82 11.79,0.12 20.59,-4.57 26.53,-13.1 1.69,-2.43 3.29,-6 3.84,-9.36z"/>
   <path class="fil3" d="M29.55 3.4c4.28,-0.58 7.65,0.71 10.79,2.25 4.17,2.06 4.78,3.33 7.46,5.66 2.11,1.84 4.19,5.16 5.4,7.88 4.71,10.67 3.91,22.34 -3.73,30.26 -5.05,5.24 -11.88,7.18 -19.44,6.68 -3.73,-0.25 -7.57,-1.35 -10.6,-2.68 -1.56,-0.68 -2.92,-1.46 -4.29,-2.35 -1.31,-0.84 -1.64,-1.2 -2.66,-2.2 -0.41,-0.4 -0.55,-0.34 -0.95,-0.67l-1.65 -1.75c-0.33,-0.32 -1.15,-1.3 -1.48,-1.75 -0.88,-1.21 -1.86,-2.55 -2.6,-4.04 -1.59,-3.22 -2.92,-6.33 -2.42,-10.64 0.83,-7.17 6.13,-13.55 9.44,-16.95 3.12,-3.2 9.95,-8.79 16.75,-9.71zm0.63 -0.98c-6.92,0.68 -13.12,5.26 -17.67,9.59 -1.95,1.86 -4.7,5.27 -6.11,7.5 -1.67,2.64 -3.35,6.06 -3.83,9.91 -0.93,7.58 3.2,14.73 8.07,19.22 2.09,1.92 4.84,4.18 8.03,5.57 8.73,3.79 19.07,4.44 27.32,-0.78 1.3,-0.82 2.78,-1.9 3.83,-2.97 4.73,-4.83 7.71,-10.74 7.06,-20.25 -0.41,-6.07 -2.65,-12.67 -6.43,-17.32 -2.6,-3.2 -5.45,-5.81 -9.3,-7.87 -3.17,-1.7 -6.68,-3.01 -10.98,-2.59z"/>
   <path class="fil3" d="M140.26 33.77c-0.54,3.37 -2.15,6.93 -3.84,9.36 -5.93,8.53 -14.74,13.22 -26.53,13.1 -7.66,-0.08 -14.24,-4.43 -17.53,-8.82 -4.22,-5.64 -5.94,-12.49 -4.17,-21.08 1.15,-5.55 2.9,-9.44 6.25,-13.51l5.06 -4.82c5.16,-3.71 11.3,-6.02 17.7,-3.89 6.44,2.15 12.07,7.16 15.42,10.99 3.08,3.52 8.84,11.18 7.63,18.68zm-29.79 -31.37c-6.78,0.55 -13.18,5.51 -17.12,10.29 -6.21,7.54 -9.24,21.42 -4.13,31.56 0.77,1.54 1.79,2.9 2.71,4.08 9.19,11.72 27.97,11.15 39.02,2.11 6.87,-5.62 12.03,-14.24 9.62,-23.55 -2.87,-11.06 -17.67,-25.51 -30.1,-24.5z"/>
   <path class="fil4" d="M67.69 20.06c0.23,-0.27 -0.01,-0.18 0.46,-0.38 0.39,-0.17 1.36,-0.08 1.9,-0.11l5.12 0.19c1.19,0.2 2.31,0.51 2.99,-1.87l0.41 -1.06c0.86,-2.12 -0.45,-4.6 -0.51,-5.89l0.16 -0.16c-0.65,-0.26 -0.14,0.04 -0.65,-0.57 -0.41,-0.48 -0.25,-0.12 -0.51,-0.66 -1.99,0.26 -4.57,0.36 -6.68,0.28 -2.88,-0.1 -4.08,-1.04 -5.25,1.19 -1.75,3.31 -0.88,9.99 2.57,9.04z"/>
   <path class="fil5" d="M68.11 8.18l0.07 0.55c0.99,0.28 4.34,0.18 5.77,0.16 1.3,-0.02 1.66,-0.02 1.65,-0.55 -0.01,-0.56 -0.56,-0.49 -1.63,-0.71 -2.1,-0.42 -4.2,-0.53 -5.86,0.55z"/>
   <path class="fil6" d="M75.55 21.4c-0.25,-0.41 -0.55,-0.36 -1.13,-0.46 -1.12,-0.07 -2.12,-0.11 -3.24,-0.05 -0.9,0.05 -2.28,-0.05 -3.03,0.41 0.66,1.45 4.59,1.08 5.76,0.77 0.6,-0.16 1.03,-0.5 1.63,-0.66z"/>
   <path class="fil7" d="M67.69 20.06c1.71,-0.1 3,-0.23 4.79,-0.17 1.63,0.05 3.22,0.41 4.77,0.35 1.26,-2.04 2.72,-3.69 1.87,-7.05 -0.12,-0.46 -0.27,-0.84 -0.38,-1.2 -0.24,-0.74 -0.11,-0.81 -0.68,-1.04 0.06,1.28 1.37,3.77 0.51,5.89l-0.41 1.06c-0.68,2.38 -1.8,2.07 -2.99,1.87l-5.12 -0.19c-0.54,0.03 -1.52,-0.06 -1.9,0.11 -0.46,0.2 -0.23,0.11 -0.46,0.38z"/>
   <path class="fil8" d="M43.01 20.04c0.96,-1.59 -1.34,-3.05 -2.27,-1.64 -1.21,1.83 1.51,2.9 2.27,1.64z"/>
   <path class="fil8" d="M43.01 34.58c0.93,-2.35 -1.27,-2.88 -2.2,-1.87 -0.88,0.95 0.39,3.15 2.2,1.87z"/>
   <path class="fil8" d="M50.31 20.39c0.73,-1.77 -1.81,-2.89 -2.41,-1.31 -0.89,2.38 1.96,2.37 2.41,1.31z"/>
   <path class="fil8" d="M107.46 51.6c0.84,-1.56 -1.61,-2.91 -2.31,-1.53 -1.11,2.17 1.63,2.8 2.31,1.53z"/>
   <path class="fil9" d="M31.75 51.91c0.79,-1.61 -1.79,-2.63 -2.44,-1.22 -0.85,1.85 1.6,2.92 2.44,1.22z"/>
   <path class="fil8" d="M48.68 40.22c-0.7,-0.33 -0.98,-0.9 -1.98,-0.5 -0.54,0.22 -0.96,1.11 -0.64,1.86 0.42,0.97 2.78,1.37 2.62,-1.36z"/>
   <path class="fil9" d="M24.66 22.63c-2.55,-0.28 -2.63,1.9 -1.4,2.54 0.67,0.35 1.57,0.04 1.83,-0.58 0.37,-0.86 -0.11,-1.4 -0.43,-1.96z"/>
   <path class="fil10" d="M111.88 51.91c0.54,1.46 3.16,0.92 2.5,-1.08 -0.5,-1.53 -3.18,-0.75 -2.5,1.08z"/>
   <path class="fil2" d="M115.06 14.68c1.17,0.84 1.35,0.83 2.67,-0.02 0.25,-3 -2.97,-2.71 -2.67,0.02z"/>
   <path class="fil8" d="M36.09 51.26c0.14,0.66 0.81,1.12 1.67,0.93 0.81,-0.18 1.1,-0.72 0.86,-1.72 -0.41,-1.7 -2.92,-1.05 -2.53,0.79z"/>
   <path class="fil8" d="M118.94 16.09c-0.2,0.59 -0.72,1.42 -0.26,2.08 0.32,0.47 1.2,0.74 1.88,0.35 1.55,-0.9 0.6,-2.62 -1.63,-2.44z"/>
   <path class="fil2" d="M15.69 31.5c0.42,1.41 3,0.94 2.45,-1.05 -0.24,-0.85 -0.62,-1.06 -1.68,-0.75 -0.83,0.25 -1.07,0.77 -0.77,1.8z"/>
   <path class="fil10" d="M46.9 23.72c0.9,-1.45 -1.59,-2.87 -2.35,-1.36 -0.92,1.84 1.43,2.85 2.35,1.36z"/>
   <path class="fil11" d="M33.84 26.32c0.22,1.52 3.15,1.14 2.67,-0.78 -0.3,-1.22 -2.99,-1.47 -2.67,0.78z"/>
   <path class="fil9" d="M118.94 22.59c-0.25,0.6 -0.82,1.31 -0.35,2.15 0.27,0.49 1.17,0.73 1.8,0.42 0.72,-0.37 1.77,-2.57 -1.45,-2.56z"/>
   <path class="fil2" d="M21.64 31.98c0.28,1.16 3.19,1.21 2.57,-0.94 -0.16,-0.54 -0.93,-1.14 -1.76,-0.93 -0.54,0.14 -0.99,1.12 -0.81,1.87z"/>
   <path class="fil11" d="M42.1 48.02c0.86,-1.61 -1.85,-2.69 -2.48,-1.12 -0.69,1.72 1.64,2.7 2.48,1.12z"/>
   <path class="fil9" d="M107.23 43.32c-0.87,0.06 -1.76,0.04 -2.02,0.85 -0.7,2.21 2.27,2.32 2.54,1.05 0.15,-0.72 -0.33,-1.44 -0.52,-1.9z"/>
   <path class="fil8" d="M15.09 27.94c0.9,-1.66 -1.72,-2.73 -2.4,-1.32 -0.86,1.77 1.6,2.8 2.4,1.32z"/>
   <path class="fil8" d="M105.45 31.08c0.59,-1.04 1.05,-1.95 -0.51,-2.58 -1.25,-0.51 -1.65,0.71 -1.7,1.9 0.94,0.57 0.85,0.82 2.2,0.69z"/>
   <path class="fil9" d="M125.73 42.51c0.83,-1.82 -2.06,-2.52 -2.5,-1.07 -0.65,2.12 1.91,2.37 2.5,1.07z"/>
   <path class="fil8" d="M100.65 34.72c1.96,0.37 2.29,0.15 2.48,-1.84 -1.92,-1.14 -3.34,-0.67 -2.48,1.84z"/>
   <path class="fil12" d="M108.83 41.86c0.05,2.09 2.35,2.05 2.6,0.42 0.34,-2.25 -2.63,-1.83 -2.6,-0.42z"/>
   <path class="fil2" d="M25.87 14.63c1.23,0.84 1.71,0.97 2.75,-0.14 -0.18,-2.86 -2.9,-2.48 -2.75,0.14z"/>
   <path class="fil10" d="M34.78 41.32c-0.36,-0.24 -1.26,-0.93 -2.04,-0.5 -0.51,0.28 -0.7,1.23 -0.44,1.86 0.53,1.32 2.63,1.19 2.48,-1.35z"/>
   <path class="fil2" d="M96.59 23.4c0.32,1.51 2.96,1.45 2.63,-0.62 -0.28,-1.78 -2.99,-1.06 -2.63,0.62z"/>
   <path class="fil10" d="M115.17 40.03c0.25,-3.52 -2.13,-2.02 -2.34,-1.72 -0.63,0.93 -0.05,3.1 2.34,1.72z"/>
   <path class="fil12" d="M121.4 30.09c-2.53,-0.1 -2.47,2.14 -1.35,2.59 0.64,0.26 1.7,0.02 1.91,-0.61 0.23,-0.7 -0.27,-1.55 -0.56,-1.98z"/>
   <path class="fil12" d="M96.92 34.76c0.4,-3.15 -1.99,-2.31 -2.39,-1.46 -0.3,0.62 -0.15,1.47 0.43,1.8 0.86,0.49 1.41,-0.03 1.96,-0.34z"/>
   <path class="fil2" d="M117.61 27.94c1,-1.76 -1.41,-2.73 -2.17,-1.61 -0.35,0.52 -0.43,1.72 0.21,2.04 0.76,0.37 1.68,0.06 1.96,-0.43z"/>
   <path class="fil12" d="M18.53 24.53c0.89,-1.57 -1.71,-2.95 -2.35,-1.38 -0.89,2.21 1.72,2.48 2.35,1.38z"/>
   <path class="fil9" d="M124.01 28.8c1.53,-1.1 0.31,-3.27 -1.36,-2.37 -0.51,0.28 -0.99,1.77 -0.21,2.25 0.34,0.21 1.07,0.29 1.57,0.12z"/>
   <path class="fil12" d="M46.37 16.72c0.96,-1.13 -1.05,-3.17 -2.12,-1.81 -1.46,1.87 1.24,2.83 2.12,1.81z"/>
   <path class="fil12" d="M40.1 13.7c0.37,0.26 1.02,0.82 1.82,0.5 1.27,-0.51 1.02,-3.07 -1.05,-2.5 -0.97,0.27 -0.84,0.98 -0.77,2z"/>
   <path class="fil10" d="M19.91 40.68c-3.05,-0.03 -2.29,2.17 -1.41,2.52 0.64,0.25 1.71,0.02 1.89,-0.58 0.29,-0.97 -0.2,-1.46 -0.48,-1.94z"/>
   <path class="fil8" d="M95.01 41.22c0.36,1.68 2.85,1.34 2.61,-0.48 -0.23,-1.74 -3.02,-1.42 -2.61,0.48z"/>
   <path class="fil2" d="M46.64 33.15c-0.11,1.38 0.3,2.54 1.82,2.05 1.58,-0.51 0.69,-3.92 -1.82,-2.05z"/>
   <path class="fil10" d="M118.9 52.39c0.34,1.76 2.96,1.1 2.59,-0.57 -0.36,-1.63 -2.99,-1.47 -2.59,0.57z"/>
   <path class="fil11" d="M11.63 41.86c0.38,1.44 2.76,1.28 2.57,-0.65 -0.09,-0.94 -0.65,-1.17 -1.61,-0.99 -0.88,0.17 -1.25,0.54 -0.96,1.63z"/>
   <path class="fil9" d="M36.42 43.38c-1.73,3.23 1.25,2.61 1.4,2.53 0.93,-0.46 1.43,-2.79 -1.4,-2.53z"/>
   <path class="fil12" d="M107.16 26.32c0.4,1.51 3.11,1.23 2.58,-0.78 -0.43,-1.63 -3.05,-0.97 -2.58,0.78z"/>
   <path class="fil9" d="M21.47 28.6c0.09,-0.92 0.18,-1.77 -0.47,-2.15 -1.79,-1.03 -2.77,1.55 -1.48,2.3 0.62,0.36 1.37,-0.02 1.96,-0.15z"/>
   <path class="fil8" d="M116.1 41.56c-0.09,0.75 -0.29,1.66 0.44,2.09 0.8,0.47 1.54,0.22 1.86,-0.41 0.85,-1.69 -0.7,-2.53 -2.3,-1.68z"/>
   <path class="fil9" d="M128.7 34.58c0.27,1.24 2.96,1.66 2.64,-0.48 -0.31,-2.07 -2.98,-1.12 -2.64,0.48z"/>
   <path class="fil12" d="M101.47 47.86c0.44,1.51 3.06,1.17 2.59,-0.78 -0.39,-1.63 -3.11,-0.98 -2.59,0.78z"/>
   <path class="fil2" d="M28.28 28.27c0.16,-0.64 0.32,-1.58 -0.19,-2.1 -0.5,-0.51 -1.56,-0.25 -1.9,0.02 -0.51,0.41 -0.43,1.46 -0.04,1.93 0.55,0.66 1.37,0.36 2.13,0.15z"/>
   <path class="fil8" d="M25.06 42.67c0.28,1.87 2.77,1.54 2.57,-0.48 -0.16,-1.62 -2.84,-1.3 -2.57,0.48z"/>
   <path class="fil2" d="M125.49 31.66c0.69,0.52 2.04,1.27 2.47,-0.27 0.44,-1.57 -0.64,-1.84 -1.98,-1.79 -0.47,0.81 -0.64,0.87 -0.49,2.06z"/>
   <path class="fil8" d="M40.36 30.36c-0.02,-0.85 -0.12,-1.69 -0.88,-1.97 -0.41,-0.15 -1.5,0.35 -1.71,0.79 -0.26,0.55 -0.06,3.24 2.59,1.18z"/>
   <path class="fil13" d="M24.25 53.34c1.15,-1.66 0.05,-3.27 -1.49,-2.4 -0.49,0.28 -0.91,1.06 -0.54,1.82 0.33,0.69 1.27,0.62 2.03,0.58z"/>
   <path class="fil2" d="M32.2 17.63c0.01,-1.09 -0.15,-2.02 -1.34,-2.01 -1.29,0.01 -1.3,0.86 -1.35,1.99 1.42,0.88 1.23,1.03 2.69,0.01z"/>
   <path class="fil14" d="M111.35 21.85c-1.01,1.62 0.25,3.21 1.81,2.22 0.82,-0.52 0.94,-2.85 -1.81,-2.22z"/>
   <path class="fil10" d="M100.56 19.84c0.63,1.28 3.18,0.68 2.45,-1.2 -0.55,-1.42 -3.37,-0.65 -2.45,1.2z"/>
   <path class="fil8" d="M128.41 27.61c0.32,1.64 3.02,1.26 2.65,-0.59 -0.32,-1.63 -3,-1.2 -2.65,0.59z"/>
   <path class="fil2" d="M112.04 15.7c-0.57,0.71 -1.09,1.68 -0.04,2.36 0.99,0.65 1.49,-0.07 2.11,-0.5 -0.05,-1.64 -0.31,-2.07 -2.07,-1.86z"/>
   <path class="fil9" d="M119.81 38.79c0.21,1.76 2.82,1.44 2.66,-0.28 -0.18,-1.93 -2.87,-1.43 -2.66,0.28z"/>
   <path class="fil8" d="M115.55 49.53c0.57,0.32 0.92,0.83 1.89,0.37 2.61,-1.25 -1.95,-4.9 -1.89,-0.37z"/>
   <path class="fil10" d="M118.97 36.06c0.41,-0.64 0.17,-1.61 -0.41,-1.89 -0.92,-0.44 -1.62,-0.21 -1.9,0.55 -0.74,2.02 1.63,2.4 2.32,1.34z"/>
   <path class="fil12" d="M28.49 40.07c3.16,1.64 3.6,-2.78 0.45,-2.19 -0.53,0.79 -0.59,0.94 -0.45,2.19z"/>
   <path class="fil10" d="M36.38 37.98c0.07,1.66 2.86,1.46 2.7,-0.3 -0.13,-1.5 -2.79,-1.81 -2.7,0.3z"/>
   <path class="fil9" d="M108.53 14.85c2.7,0.44 2.68,-1.9 1.61,-2.39 -0.7,-0.32 -1.51,-0.3 -1.81,0.31 -0.36,0.71 -0.01,1.56 0.2,2.08z"/>
   <path class="fil12" d="M38.78 15.12c-2.13,-0.77 -2.29,1.08 -1.63,2.44 0.94,0.09 1.74,0.13 2.1,-0.67 0.29,-0.64 0.08,-1.4 -0.47,-1.78z"/>
   <path class="fil15" d="M121.7 46.58c1.02,-1.95 -1.84,-2.75 -2.26,-1.45 -0.67,2.09 1.56,2.77 2.26,1.45z"/>
   <path class="fil2" d="M90.43 24.21c0.38,1.07 3.39,1.04 2.32,-1.33 -0.73,-1.61 -2.88,-0.27 -2.32,1.33z"/>
   <path class="fil8" d="M22.44 16.73c-0.48,3.22 4.38,2.09 2.1,-0.66 -1.03,-0.04 -1.51,0.26 -2.1,0.66z"/>
   <path class="fil15" d="M97.66 37.33c0.03,1.36 2.77,2.07 2.71,-0.16 -0.03,-0.99 -0.48,-1.23 -1.47,-1.14 -0.74,0.07 -1.26,0.53 -1.24,1.3z"/>
   <path class="fil15" d="M46.58 30.9c0.71,-1.55 -1.7,-2.73 -2.45,-1.37 -1.08,1.97 1.91,2.54 2.45,1.37z"/>
   <path class="fil2" d="M101.48 11.95c-1.32,1.2 -0.01,2.83 1.42,2.19 1.22,-0.54 0.87,-2.72 -0.78,-2.52 -1.04,0.13 -0.38,0.09 -0.64,0.32z"/>
   <path class="fil8" d="M14.9 38.46c0.24,1.44 3,1.31 2.65,-0.61 -0.28,-1.58 -2.99,-1.37 -2.65,0.61z"/>
   <path class="fil8" d="M32.31 21.81c-0.75,-0.11 -1.73,-0.29 -2.14,0.43 -0.17,0.3 -0.48,1.48 0.44,1.9 0.86,0.39 2.65,0.32 1.7,-2.33z"/>
   <path class="fil9" d="M101.5 41.22c0.21,1.71 2.62,1.37 2.62,-0.33 0,-0.88 -0.59,-1.27 -1.51,-1.16 -0.96,0.12 -1.24,0.48 -1.12,1.49z"/>
   <path class="fil11" d="M20.74 33.83c-2.22,-0.94 -3.11,0.25 -2.03,2.18 0.84,0.13 1.52,0.16 1.99,-0.42 0.27,-0.61 0.16,-1.01 0.04,-1.76z"/>
   <path class="fil10" d="M21.19 38.95c0.23,1.51 2.96,1.27 2.6,-0.64 -0.27,-1.45 -2.92,-1.49 -2.6,0.64z"/>
   <path class="fil2" d="M104.55 37.98c0.2,1.62 2.82,1.49 2.71,-0.28 -0.13,-1.96 -2.9,-1.31 -2.71,0.28z"/>
   <path class="fil9" d="M42.12 40.28c-1.51,-1.22 -3.3,-0.27 -2.43,1.34 0.33,0.6 1.13,0.99 1.86,0.58 0.63,-0.35 0.62,-1.12 0.57,-1.92z"/>
   <path class="fil8" d="M129.08 45.59c0.57,-2.18 -2.39,-1.77 -2.64,-0.6 -0.17,0.77 0.35,1.39 1,1.54 1.18,0.28 1.43,-0.09 1.65,-0.94z"/>
   <path class="fil9" d="M32.98 14.36c2.18,1.57 2.78,-0.17 2.38,-1.45 -0.29,-0.92 -2.84,-1.28 -2.38,1.45z"/>
   <path class="fil8" d="M126.13 38.63c0.38,1.42 3.07,1.03 2.52,-0.92 -0.47,-1.66 -3,-0.89 -2.52,0.92z"/>
   <path class="fil11" d="M114.43 44.31c-0.72,-0.24 -1.78,-0.4 -2.17,0.41 -0.46,0.95 0.25,1.55 0.49,2.07 0.73,-0 1.32,-0.28 1.94,-0.6 0.1,-0.87 0.09,-1.19 -0.26,-1.88z"/>
   <path class="fil8" d="M93.29 20.16c0.31,1.24 2.92,1.51 2.51,-0.79 -0.32,-1.77 -2.95,-1.01 -2.51,0.79z"/>
   <path class="fil9" d="M12.31 35.02c2.03,1.54 3.03,-0.46 2.5,-1.39 -0.39,-0.69 -2.7,-1.72 -2.5,1.39z"/>
   <path class="fil12" d="M47.36 26.15c-0.09,1.08 -0.19,1.65 0.79,1.98 0.91,0.31 1.39,-0.07 1.65,-0.71 0.66,-1.61 -0.97,-2.42 -2.44,-1.27z"/>
   <path class="fil12" d="M127.45 24.53c0.74,-1.99 -1.46,-2.7 -2.27,-1.41 -1.05,1.68 1.73,2.86 2.27,1.41z"/>
   <path class="fil9" d="M35.58 33.59c-0.57,-0.21 -1.41,-0.62 -2.07,-0.27 -0.57,0.31 -0.67,1.14 -0.3,1.81 0.67,1.2 2.7,1.12 2.37,-1.54z"/>
   <path class="fil8" d="M28.08 49.51c0.03,-0.99 -0.1,-2.02 -1.12,-2.16 -1.19,-0.16 -1.55,0.81 -1.49,1.91 1.77,1.36 1.25,0.91 2.62,0.25z"/>
   <path class="fil2" d="M129.59 42.25c0.29,0.36 1.21,0.79 1.85,0.43 0.55,-0.31 0.6,-1.15 0.58,-1.94 -1.53,-1.24 -3.2,-0.29 -2.43,1.52z"/>
   <path class="fil8" d="M14.74 44.22c-0.79,2.02 0.71,3.09 2.03,2.02 0.56,-0.46 0.6,-1.29 0.14,-1.76 -0.52,-0.53 -1.38,-0.37 -2.17,-0.25z"/>
   <path class="fil9" d="M30.7 46.83c0.34,-0.39 0.71,-0.72 0.79,-1.27 0.09,-0.63 -0.12,-1.15 -0.71,-1.35 -1.81,-0.62 -1.95,0.64 -1.87,2.03l1.78 0.59z"/>
   <path class="fil8" d="M110.18 20.16c0.85,-1.44 -1.86,-2.77 -2.44,-1.01 -0.65,1.96 1.63,2.38 2.44,1.01z"/>
   <path class="fil8" d="M99.68 30.88c0.02,-0.95 -0.13,-1.74 -0.85,-1.9 -2.82,-0.65 -2.24,4.3 0.85,1.9z"/>
   <path class="fil9" d="M106.43 23.2c0.03,-2.18 -1.76,-2.76 -2.47,-1.17 -0.36,0.81 -0.17,1.39 0.55,1.74 0.89,0.43 1.44,-0.16 1.91,-0.57z"/>
   <path class="fil8" d="M39.83 23.3c0.04,-2.42 -1.8,-2.77 -2.46,-1.31 -0.39,0.85 -0.11,1.47 0.57,1.79 0.92,0.43 1.35,-0.26 1.89,-0.48z"/>
   <path class="fil10" d="M115.4 19.01c-1.28,1.65 -0.26,3.43 1.78,2.31 0.21,-0.57 0.34,-1.26 0.01,-1.77 -0.26,-0.42 0.04,-0.28 -0.7,-0.46 -0.36,-0.08 -0.73,-0.08 -1.09,-0.08z"/>
   <path class="fil10" d="M43.42 36.29c-0.26,1.46 -0.19,1.2 0.3,2.24 1.48,0.07 2.46,-0.17 2.18,-1.85 -0.67,-0.88 -1.38,-0.76 -2.48,-0.39z"/>
   <path class="fil11" d="M96.28 26.15c-3.14,-2.33 -3.34,3.1 -0.65,1.94 0.87,-0.38 0.73,-0.96 0.65,-1.94z"/>
   <path class="fil12" d="M124.96 35.99c1.06,-2.21 -0.06,-2.94 -2.05,-2.17 -0.15,0.75 -0.22,1.09 0.01,1.84 0.55,0.38 1.09,0.52 2.04,0.34z"/>
   <path class="fil9" d="M99.92 27.13c1.25,0.89 1.78,0.65 2.79,-0.17 -0.3,-1.42 -0.37,-2.12 -2.21,-1.74 -0.46,0.69 -0.61,0.97 -0.59,1.92z"/>
   <path class="fil9" d="M40.96 26.96c1,0.95 1.65,0.98 2.72,0.16 0.09,-0.91 -0.26,-1.31 -0.48,-1.98 -1.72,-0.07 -2.14,0.14 -2.24,1.82z"/>
   <path class="fil9" d="M29.46 29.32c-1,1.57 0.29,3.13 1.76,2.23 0.58,-0.35 0.68,-1.43 0.26,-1.96 -0.42,-0.54 -1.35,-0.35 -2.02,-0.27z"/>
   <path class="fil2" d="M51.59 38.77c1.89,-4.08 -3.43,-2.57 -2.05,-0.54 0.41,0.6 1.24,0.55 2.05,0.54z"/>
   <path class="fil11" d="M94.22 37.98c0.35,-2.69 -4.13,-2.29 -2.14,0.76 1.18,0.12 1.62,0.04 2.14,-0.76z"/>
   <path class="fil10" d="M112.13 29.51c-0.71,2.4 1.32,2.71 2.07,1.91 1.05,-1.12 -0.02,-3.01 -2.07,-1.91z"/>
   <path class="fil12" d="M104.77 15.06c-0.92,1.6 -0.56,2.87 1.71,2.47 0.26,-0.57 0.47,-1.29 0.32,-2.06 -0.55,-0.46 -1.18,-0.51 -2.04,-0.41z"/>
   <path class="fil9" d="M91.07 29.88c-0.04,0.8 -0.04,1.72 0.72,1.93 0.84,0.23 1.62,-0.07 1.82,-0.73 0.54,-1.73 -1.27,-2.28 -2.54,-1.2z"/>
   <path class="fil8" d="M32.59 47.15c-0.28,1.77 0.15,2.37 2,2.16 0.74,-1.07 0.99,-3.48 -2,-2.16z"/>
   <path class="fil9" d="M28.64 21.35c0.24,-0.81 0.14,-1.69 -0.38,-2.32 -2.11,-0.09 -2.24,0.6 -1.85,2.34 1.06,0.28 1.31,0.31 2.23,-0.02z"/>
   <path class="fil8" d="M108.73 47c-0.24,0.91 -0.22,1.65 0.36,2.33 1.93,0.08 2.05,-0.36 2.01,-2.19 -1.02,-0.33 -1.35,-0.61 -2.36,-0.14z"/>
   <path class="fil8" d="M26.45 34.01c-2.69,-0.15 -2.31,2.06 -1.11,2.52 1.64,0.63 2.31,-1.12 1.11,-2.52z"/>
   <path class="fil2" d="M99.69 16.63c0.17,-3.06 -2,-2.14 -2.41,-1.46 -0.44,0.73 -0.16,1.6 0.39,1.83 0.81,0.34 1.54,-0.13 2.02,-0.37z"/>
   <path class="fil8" d="M35.46 18.35c-0.93,-0.03 -1.81,0.1 -2.08,0.77 -0.32,0.8 0.32,1.48 0.72,1.69 0.38,0.21 2.91,0.5 1.35,-2.47z"/>
   <path class="fil8" d="M53.15 24.37c0.34,-2.21 -1.46,-2.85 -2.21,-1.62 -0.96,1.57 0.39,2.83 2.21,1.62z"/>
   <path class="fil9" d="M52.43 31.18c0.33,-1.01 0.36,-1.41 -0.55,-1.74 -0.66,-0.24 -1.39,-0.14 -1.73,0.46 -1,1.76 1.79,2.79 2.28,1.28z"/>
   <path class="fil8" d="M24 44.67c-0.88,-0.12 -1.72,-0.25 -2.12,0.4 -0.37,0.6 -0.02,1.46 0.37,1.83 1.32,1.26 2.37,-0.36 1.75,-2.23z"/>
   <path class="fil9" d="M108.02 33.66c-0.15,3.42 2.99,2.51 2.49,-0.03 -0.92,-0.58 -1.47,-0.49 -2.49,0.03z"/>
   <path class="fil16" d="M109.9 126.19c0.3,0.45 4.55,0.24 5.04,0.18 0.07,-0.37 0.09,-4.73 -0.22,-5.29l0.15 5.19 -4.96 -0.08z"/>
   <path class="fil17" d="M63.78 126.43c0.71,0.28 4.27,0.25 4.75,0.09l0.06 -4.32c-0.06,-0.44 0.02,-0.24 -0.2,-0.47l0.02 4.71 -4.62 -0z"/>
   <path class="fil18" d="M78.22 10.78c-0.19,-0.82 0.11,0.03 -0.12,-0.42 -0.11,-0.2 -0.16,-0.25 -0.29,-0.38 -0.22,-0.23 -0.36,-0.33 -0.75,-0.43 0.27,0.54 0.1,0.17 0.51,0.66 0.52,0.61 0,0.31 0.65,0.57z"/>
   <path class="fil19" d="M68.18 8.73l-0.07 -0.55c-0.68,0.21 -0.16,0.01 -0.34,0.32l0.41 0.23z"/>
   <path class="fil20" d="M44.93 4.4l-0.47 -0.32c0.17,0.23 -0.11,0.15 0.47,0.32z"/>
   <path class="fil21" d="M61.3 68.36c-0.15,-0.3 -0.05,-0.22 -0.4,-0.41l0.4 0.41z"/>
   <polygon class="fil21" points="63.48,74.4 63.89,74.01 "/>
   <polygon class="fil20" points="75.97,82.19 75.57,81.78 "/>
   <polygon class="fil20" points="8.6,49.8 8.19,49.39 "/>
   <polygon class="fil22" points="10.36,10.91 10.77,10.52 "/>
  </g>
 </g>
</svg>
